# xmcd
#
# Track frame offsets: 
#        150
#        17543
#        29802
#        48686
#        65834
#        81176
#        96771
#        116741
#        133607
#        148423
#        163118
#        177346
#
# Disc length: 2660 seconds
#
# Revision: 0
# Processed by: cddbd v1.5.2PL0 Copyright (c) Steve Scherf et al.
# Submitted via: ExactAudioCopyFreeDBPlugin 1.0
#
DISCID=b50a620c
DTITLE=Clas Yngström and Big Tex Three - Mr Bob's Blue Devils
DYEAR=2012
DGENRE=Blues
TTITLE0=You wanna ramble
TTITLE1=Clean cut kid
TTITLE2=Slow train
TTITLE3=Blind Willie Mc Tell
TTITLE4=Ugliest girl in the world
TTITLE5=Beyond here lies nothin'
TTITLE6=Million miles
TTITLE7=Tough mama
TTITLE8=Outlaw blues
TTITLE9=Pledging my time
TTITLE10=Jolene
TTITLE11=Meet me in the morning
EXTD=
EXTT0=
EXTT1=
EXTT2=
EXTT3=
EXTT4=
EXTT5=
EXTT6=
EXTT7=
EXTT8=
EXTT9=
EXTT10=
EXTT11=
PLAYORDER=
